<svg width="200" height="200" xmlns="http://www.w3.org/2000/svg">
  <defs>
    <linearGradient id="premiumGrad" x1="0%" y1="0%" x2="100%" y2="100%">
      <stop offset="0%" style="stop-color:#d4c4a0;stop-opacity:1" />
      <stop offset="100%" style="stop-color:#b8a680;stop-opacity:1" />
    </linearGradient>
  </defs>
  <rect width="200" height="200" fill="url(#premiumGrad)"/>
  <g transform="translate(100,100)">
    <!-- Shirt with details -->
    <path d="M -40,-50 L -40,-30 L -60,-10 L -60,40 L 60,40 L 60,-10 L 40,-30 L 40,-50 L 20,-50 L 10,-45 Q 0,-40 -10,-45 L -20,-50 Z" 
          fill="white" stroke="#8b7355" stroke-width="2"/>
    <!-- Collar with stitching -->
    <path d="M -20,-50 L -10,-45 Q 0,-42 10,-45 L 20,-50" 
          fill="none" stroke="#8b7355" stroke-width="2"/>
    <path d="M -18,-48 L -8,-43 Q 0,-40 8,-43 L 18,-48" 
          fill="none" stroke="#8b7355" stroke-width="1" stroke-dasharray="2,2"/>
    <!-- Pocket -->
    <rect x="-30" y="-10" width="20" height="15" fill="none" stroke="#8b7355" stroke-width="1.5"/>
    <!-- Premium buttons -->
    <circle cx="0" cy="-20" r="4" fill="none" stroke="#8b7355" stroke-width="1.5"/>
    <circle cx="0" cy="0" r="4" fill="none" stroke="#8b7355" stroke-width="1.5"/>
    <circle cx="0" cy="20" r="4" fill="none" stroke="#8b7355" stroke-width="1.5"/>
  </g>
  <text x="100" y="180" text-anchor="middle" font-family="Arial, sans-serif" font-size="14" fill="#8b7355">プレミアム</text>
</svg>